<?xml version="1.0" ?>
<svg id="Layer_1" style="enable-background:new 0 0 137.3 139.3;" version="1.1" viewBox="0 0 137.3 139.3" xml:space="preserve"
	xmlns="http://www.w3.org/2000/svg"
	xmlns:xlink="http://www.w3.org/1999/xlink">
	<style type="text/css">
		.st2{fill:#215C6D;}
		.st3{fill:#FFFFFF;}
		.st4{fill:#3B4A51;}
		.st5{fill:#FFFFFF;stroke:#235C6D;stroke-miterlimit:10;}
	</style>
	<g id="XMLID_330_">
		<circle class="st2" cx="68.8" cy="69" id="XMLID_378_" r="37.6"/>
		<circle class="st3" cx="68.7" cy="69" id="XMLID_377_" r="32.5"/>
		<path class="st4 watch-item-arrow watch-item-hours-arrow" d="M67.5,69.9l0.3,18.4c0,0,1.4,1.8,2.4,0l-0.4-18.1l-0.1,0c-0.3,0.1-0.4,0.3-1.3,0.2   C68.1,70.4,67.8,70.2,67.5,69.9L67.5,69.9z" id="XMLID_374_"/>
		<path class="st4 watch-item-arrow watch-item-minutes-arrow" d="M70.5,69.9l18.9-0.1c0,0,1.7-0.8-0.1-1.8l-18.7,0.3c0,0,0.1,0.4,0.1,0.8   C70.7,69.4,70.5,69.9,70.5,69.9z" id="XMLID_371_"/>
		<g class="watch-item-arrow watch-item-seconds-arrow" id="XMLID_332_">
			<g id="XMLID_39_">
				<g id="XMLID_42_">
					<rect class="st2" height="22.5" id="XMLID_43_" transform="matrix(-0.7071 0.7071 -0.7071 -0.7071 156.3836 64.8282)" width="0.6" x="64.5" y="53.6"/>
				</g>
				<circle class="st2" cx="72.6" cy="72.6" id="XMLID_41_" r="0.5"/>
				<circle class="st2" cx="57" cy="57" id="XMLID_40_" r="0.6"/>
			</g>
		</g>
		<circle class="st5" cx="68.8" cy="69" id="XMLID_331_" r="2.1"/>
	</g>
</svg>
