<svg xmlns="http://www.w3.org/2000/svg" xmlns:xlink="http://www.w3.org/1999/xlink" id="Layer_1" style="enable-background:new 0 0 80 80;" version="1.1" viewBox="0 0 80 80" xml:space="preserve">
	<rect id="backgroundrect" width="100%" height="100%" x="0" y="0" fill="none" stroke="none" class="" style=""/>
	<style type="text/css">
		.st2{fill:#215C6D;}
		.st3{fill:#FFFFFF;}
		.st4{fill:#3B4A51;}
		.st5{fill:#FFFFFF;stroke:#235C6D;stroke-miterlimit:10;}
	</style>
	
<g class="currentLayer" style=""><title>Layer 1</title><g id="XMLID_330_" class="">
		<circle class="st2" cx="37.599998474121094" cy="37.599998474121094" id="XMLID_378_" r="37.599998474121094"/>
		<circle class="st3" cx="37.49999237060547" cy="37.599998474121094" id="XMLID_377_" r="32.5"/>
		<path class="st4 watch-item-arrow watch-item-hours-arrow" d="M36.29999542236328,38.4999984741211 l0.30000000000000004,18.4 c0,0 1.4,1.8 2.4,0 l-0.4,-18.1 l-0.1,0 c-0.30000000000000004,0.1 -0.4,0.30000000000000004 -1.3,0.2 C36.899995422363276,38.9999984741211 36.59999542236328,38.7999984741211 36.29999542236328,38.4999984741211 L36.29999542236328,38.4999984741211 z" id="XMLID_374_"/>
		<path class="st4 watch-item-arrow watch-item-minutes-arrow" d="M39.29999542236328,38.4999984741211 l18.9,-0.1 c0,0 1.7000000000000002,-0.8 -0.1,-1.8 l-18.7,0.30000000000000004 c0,0 0.1,0.4 0.1,0.8 C39.499995422363284,37.9999984741211 39.29999542236328,38.4999984741211 39.29999542236328,38.4999984741211 z" id="XMLID_371_"/>
		<g class="watch-item-arrow watch-item-seconds-arrow" id="XMLID_332_">
			<g id="XMLID_39_">
				<g id="XMLID_42_">
					<rect class="st2" height="22.5" id="XMLID_43_" transform="matrix(-0.7071,0.7071,-0.7071,-0.7071,156.3836,64.8282) " width="0.6000000238418579" x="64.35857944545174" y="97.86531179862655"/>
				</g>
				<circle class="st2" cx="41.399993896484375" cy="41.19999694824219" id="XMLID_41_" r="0.5"/>
				<circle class="st2" cx="25.79999542236328" cy="25.599998474121094" id="XMLID_40_" r="0.6000000238418579"/>
			</g>
		</g>
		<circle class="st5" cx="37.599998474121094" cy="37.599998474121094" id="XMLID_331_" r="2.0999999046325684"/>
	</g></g></svg>